<?xml version="1.0" encoding="UTF-8"?>
<svg version="1.1" xmlns="http://www.w3.org/2000/svg" width="417" height="417">
<path d="M0 0 C137.61 0 275.22 0 417 0 C417 137.61 417 275.22 417 417 C279.39 417 141.78 417 0 417 C0 279.39 0 141.78 0 0 Z " fill="#FEFEFE" transform="translate(0,0)"/>
<path d="M0 0 C7.61668504 5.41566579 13.00002093 11.75983031 15.37280273 20.89916992 C15.94568566 24.62890009 15.92784059 28.31165605 15.90234375 32.07421875 C15.9009288 32.86620163 15.89951385 33.65818451 15.89805603 34.47416687 C15.89248207 36.99062969 15.87993443 39.50700181 15.8671875 42.0234375 C15.86216913 43.73502475 15.85760681 45.44661341 15.85351562 47.15820312 C15.84252118 51.34248258 15.82527457 55.52669469 15.8046875 59.7109375 C10.27292012 59.8104366 4.74168324 59.88270173 -0.79077148 59.93066406 C-2.66944463 59.9506757 -4.5480563 59.97789387 -6.42651367 60.01269531 C-9.13996623 60.0616772 -11.85258946 60.08401079 -14.56640625 60.1015625 C-15.39490585 60.12220764 -16.22340546 60.14285278 -17.07701111 60.16412354 C-26.0365403 60.16750651 -32.912081 56.66907671 -39.40625 50.640625 C-46.73570985 42.7350504 -48.95214626 34.52253255 -48.6328125 23.8671875 C-48.03611284 15.73715465 -44.11343633 9.11132104 -38.1953125 3.6484375 C-35.04691058 1.18238885 -31.90635079 -0.75624234 -28.1953125 -2.2890625 C-27.2878125 -2.6809375 -26.3803125 -3.0728125 -25.4453125 -3.4765625 C-16.76162451 -5.6474845 -7.75825114 -4.55555672 0 0 Z " fill="#0B0B0B" transform="translate(225.1953125,141.2890625)"/>
<path d="M0 0 C3.96 0 7.92 0 12 0 C13.5731138 3.93012208 15.13949833 7.86283832 16.69970703 11.7980957 C17.23139321 13.13639426 17.76491007 14.47396703 18.30029297 15.81079102 C19.06961 17.73265629 19.83230154 19.65703716 20.59375 21.58203125 C21.05458984 22.73936768 21.51542969 23.8967041 21.99023438 25.08911133 C23 28 23 28 23 31 C23.66 31 24.32 31 25 31 C25.11786865 30.30237549 25.2357373 29.60475098 25.35717773 28.88598633 C26.06368268 25.71409307 27.10666637 22.8524902 28.28515625 19.82421875 C28.73310547 18.66728516 29.18105469 17.51035156 29.64257812 16.31835938 C30.11115234 15.12017578 30.57972656 13.92199219 31.0625 12.6875 C31.53494141 11.46998047 32.00738281 10.25246094 32.49414062 8.99804688 C33.65914036 5.99728997 34.82909305 2.99845682 36 0 C39.96 0 43.92 0 48 0 C48 0.66 48 1.32 48 2 C46.35 2 44.7 2 43 2 C43 14.54 43 27.08 43 40 C44.65 40 46.3 40 48 40 C48 40.66 48 41.32 48 42 C43.05 42 38.1 42 33 42 C33 41.34 33 40.68 33 40 C34.32 40 35.64 40 37 40 C36.67 29.44 36.34 18.88 36 8 C34.68 11.96 33.36 15.92 32 20 C31.15704296 22.15862204 30.29035257 24.30856708 29.375 26.4375 C27.87685593 29.94430221 26.40300027 33.45388464 25 37 C23.35 37 21.7 37 20 37 C16.04 26.77 12.08 16.54 8 6 C7.67 17.22 7.34 28.44 7 40 C8.65 40 10.3 40 12 40 C12 40.66 12 41.32 12 42 C8.04 42 4.08 42 0 42 C0 41.34 0 40.68 0 40 C1.65 40 3.3 40 5 40 C5 27.46 5 14.92 5 2 C3.35 2 1.7 2 0 2 C0 1.34 0 0.68 0 0 Z " fill="#0B0B0B" transform="translate(66,222)"/>
<path d="M0 0 C3.63 0 7.26 0 11 0 C11.33 9.9 11.66 19.8 12 30 C15.63 26.37 19.26 22.74 23 19 C22.01 18.67 21.02 18.34 20 18 C20 17.34 20 16.68 20 16 C23.96 16 27.92 16 32 16 C32 16.66 32 17.32 32 18 C31.154375 18.185625 30.30875 18.37125 29.4375 18.5625 C24.90490954 20.45794692 22.25312328 23.40039022 19 27 C20.1010141 28.91847937 21.20594096 30.83471354 22.3125 32.75 C22.92738281 33.81734375 23.54226563 34.8846875 24.17578125 35.984375 C26.81254767 40.86210169 26.81254767 40.86210169 31.1875 43.75 C31.785625 43.8325 32.38375 43.915 33 44 C33 44.66 33 45.32 33 46 C29.68384915 46.98778961 27.28456149 47.17376221 24 46 C20.17613715 41.98793809 17.6126779 36.8424101 15 32 C11.82754044 33.94757827 11.82754044 33.94757827 10.390625 37.26171875 C10.32101562 38.46248047 10.32101562 38.46248047 10.25 39.6875 C10.19328125 40.49574219 10.1365625 41.30398438 10.078125 42.13671875 C10.05234375 42.75160156 10.0265625 43.36648438 10 44 C11.65 44 13.3 44 15 44 C15 44.66 15 45.32 15 46 C10.38 46 5.76 46 1 46 C1 45.34 1 44.68 1 44 C2.32 44 3.64 44 5 44 C5 30.47 5 16.94 5 3 C3.35 2.67 1.7 2.34 0 2 C0 1.34 0 0.68 0 0 Z " fill="#111111" transform="translate(291,218)"/>
<path d="M0 0 C3.00197464 1.80118478 4.45166366 2.90332732 6 6 C6.08426094 7.6674606 6.10725143 9.33825187 6.09765625 11.0078125 C6.09443359 11.99394531 6.09121094 12.98007813 6.08789062 13.99609375 C6.07951172 15.02863281 6.07113281 16.06117188 6.0625 17.125 C6.05798828 18.16527344 6.05347656 19.20554688 6.04882812 20.27734375 C6.03701952 22.85161962 6.02055075 25.42578146 6 28 C7.65 28 9.3 28 11 28 C10.67 28.66 10.34 29.32 10 30 C3.375 30.25 3.375 30.25 0 28 C-0.55558594 28.32355469 -1.11117187 28.64710938 -1.68359375 28.98046875 C-4.31230076 30.13745447 -6.20102131 30.29955213 -9.0625 30.3125 C-10.34833984 30.33763672 -10.34833984 30.33763672 -11.66015625 30.36328125 C-14 30 -14 30 -15.77734375 28.7265625 C-17.48689965 26.31242925 -17.46006906 23.92600657 -17.59375 21.03515625 C-16.64132528 17.77059519 -14.85058014 16.73496848 -12 15 C-8.66796875 14.609375 -8.66796875 14.609375 -5.1875 14.75 C-4.02605469 14.78609375 -2.86460937 14.8221875 -1.66796875 14.859375 C-0.78753906 14.90578125 0.09289062 14.9521875 1 15 C0.88601335 13.37419034 0.75844341 11.74932843 0.625 10.125 C0.55539063 9.22007812 0.48578125 8.31515625 0.4140625 7.3828125 C0.20431868 4.82058097 0.20431868 4.82058097 -2 3 C-4.68839385 2.73008094 -7.29141936 2.91262643 -10 3 C-10.33 5.31 -10.66 7.62 -11 10 C-12.65 10 -14.3 10 -16 10 C-15.51010879 3.5089415 -15.51010879 3.5089415 -13.29296875 1.296875 C-9.12612011 -1.05984348 -4.63889759 -0.639137 0 0 Z " fill="#0F0F0F" transform="translate(138,234)"/>
<path d="M0 0 C3.64051176 0.81120099 5.09653944 2.45526886 7.15625 5.48046875 C8.20517244 8.75063869 8.79407314 11.05692146 7.34765625 14.28515625 C6.61738162 15.5745056 5.88416112 16.86218965 5.1484375 18.1484375 C3.2260645 22.66677088 3.31805992 27.62617124 3.15625 32.48046875 C-0.14375 32.48046875 -3.44375 32.48046875 -6.84375 32.48046875 C-7.48855311 29.74005554 -7.84453313 27.49221569 -7.65625 24.66796875 C-7.84506128 21.45817707 -8.32827468 20.32268942 -9.84375 17.60546875 C-12.17671132 13.23221151 -12.57209301 10.41701581 -11.84375 5.48046875 C-8.69025092 0.59763146 -5.54911362 -0.34219534 0 0 Z " fill="#FAFAFA" transform="translate(210.84375,156.51953125)"/>
<path d="M0 0 C3.68623011 1.61272567 4.75355 2.630325 7 6 C7 8.97 7 11.94 7 15 C0.73 15 -5.54 15 -12 15 C-11.34 18.96 -10.68 22.92 -10 27 C-6.37 27 -2.74 27 1 27 C1.66 25.35 2.32 23.7 3 22 C4.32 22.33 5.64 22.66 7 23 C5.59344643 26.39917113 4.12930725 28.06719258 1 30 C-3.3363101 30.78603808 -7.91707531 30.96134985 -11.98046875 29.0859375 C-15.62315349 26.29770967 -17.16617915 23.41925053 -18 19 C-18.53219168 13.9026016 -18.60816425 10.19460836 -16.25 5.5625 C-11.22732369 -0.15777025 -7.44299859 -0.90474051 0 0 Z " fill="#0F0F0F" transform="translate(202,234)"/>
<path d="M0 0 C2.86328125 0.45703125 2.86328125 0.45703125 6.11328125 2.70703125 C7.86328125 5.45703125 7.86328125 5.45703125 7.86328125 9.45703125 C6.21328125 9.78703125 4.56328125 10.11703125 2.86328125 10.45703125 C2.20328125 8.14703125 1.54328125 5.83703125 0.86328125 3.45703125 C-3.13926331 3.36521991 -3.13926331 3.36521991 -7.13671875 3.45703125 C-8.49290374 4.5823723 -8.49290374 4.5823723 -8.19921875 7.51953125 C-8.17859375 8.48890625 -8.15796875 9.45828125 -8.13671875 10.45703125 C-7.23308594 10.78316406 -6.32945312 11.10929688 -5.3984375 11.4453125 C-3.62919922 12.10080078 -3.62919922 12.10080078 -1.82421875 12.76953125 C-0.65246094 13.19878906 0.51929688 13.62804687 1.7265625 14.0703125 C6.14743665 16.02474628 6.14743665 16.02474628 7.86328125 18.45703125 C8.72774329 25.26466982 8.72774329 25.26466982 6.05078125 28.95703125 C1.32492599 31.18096314 -3.00875392 31.36417123 -8.13671875 30.45703125 C-10.70697633 29.03946552 -12.11406655 27.64368228 -14.13671875 25.45703125 C-13.64171875 23.97203125 -13.64171875 23.97203125 -13.13671875 22.45703125 C-12.14671875 22.45703125 -11.15671875 22.45703125 -10.13671875 22.45703125 C-9.76546875 23.28203125 -9.39421875 24.10703125 -9.01171875 24.95703125 C-7.43143165 27.66123605 -7.43143165 27.66123605 -4.98046875 27.82421875 C-2.65841623 27.83156702 -0.43689143 27.77777246 1.86328125 27.45703125 C3.21946624 26.3316902 3.21946624 26.3316902 2.92578125 23.39453125 C2.90515625 22.42515625 2.88453125 21.45578125 2.86328125 20.45703125 C2.0434375 20.2146875 1.22359375 19.97234375 0.37890625 19.72265625 C-1.23757813 19.21992188 -1.23757813 19.21992188 -2.88671875 18.70703125 C-4.48773438 18.21976563 -4.48773438 18.21976563 -6.12109375 17.72265625 C-9.33593797 16.37342111 -11.00481533 15.19804994 -13.13671875 12.45703125 C-13.66796875 10.45703125 -13.66796875 10.45703125 -13.63671875 8.45703125 C-13.64703125 7.79703125 -13.65734375 7.13703125 -13.66796875 6.45703125 C-11.82052222 -0.49806156 -6.01888733 -0.19842486 0 0 Z " fill="#0A0A0A" transform="translate(342.13671875,233.54296875)"/>
<path d="M0 0 C4.62 0 9.24 0 14 0 C14 0.66 14 1.32 14 2 C12.68 2 11.36 2 10 2 C11.1411625 5.31412795 12.28870745 8.62600993 13.4375 11.9375 C13.76298828 12.88302734 14.08847656 13.82855469 14.42382812 14.80273438 C14.73642578 15.70185547 15.04902344 16.60097656 15.37109375 17.52734375 C15.8031311 18.77632446 15.8031311 18.77632446 16.24389648 20.05053711 C16.83880993 21.97333091 16.83880993 21.97333091 18 23 C20.31 16.07 22.62 9.14 25 2 C23.68 2 22.36 2 21 2 C21 1.34 21 0.68 21 0 C24.96 0 28.92 0 33 0 C33 0.66 33 1.32 33 2 C31.35 2 29.7 2 28 2 C27.72027344 2.98742187 27.44054687 3.97484375 27.15234375 4.9921875 C25.99199562 9.04779303 24.79420102 13.09051182 23.5625 17.125 C23.35818359 17.81464844 23.15386719 18.50429687 22.94335938 19.21484375 C21.73826882 23.14171204 20.56739625 26.75763717 18 30 C16.68 30 15.36 30 14 30 C13.67386719 29.0821875 13.34773437 28.164375 13.01171875 27.21875 C10.72371159 20.79343195 8.43301222 14.37217487 6 8 C5.690625 7.030625 5.38125 6.06125 5.0625 5.0625 C4.18753605 2.80102384 4.18753605 2.80102384 1.875 2.1875 C1.25625 2.125625 0.6375 2.06375 0 2 C0 1.34 0 0.68 0 0 Z " fill="#111111" transform="translate(149,234)"/>
<path d="M0 0 C3.1875 2.125 3.1875 2.125 5 5 C5.3125 8.3125 5.3125 8.3125 5 11 C3.35 11.33 1.7 11.66 0 12 C-0.22786458 9.94921875 -0.45572917 7.8984375 -0.68359375 5.84765625 C-0.81886614 3.98859771 -0.81886614 3.98859771 -2 3 C-6.03083011 2.67539739 -6.03083011 2.67539739 -10 3 C-12.56161093 6.84241639 -12.25841178 9.99245125 -12.1875 14.4375 C-12.1865332 15.5831543 -12.1865332 15.5831543 -12.18554688 16.75195312 C-12.15730713 20.35722782 -11.97635524 23.5099561 -11 27 C-7.62114388 27.28526928 -4.36708009 27.46087248 -1 27 C1.23025247 24.6797907 1.23025247 24.6797907 2 22 C2.99 22.33 3.98 22.66 5 23 C3.75023244 26.65316671 3.32901247 27.78065836 0 30 C-4.98135074 30.66315196 -9.50108693 30.78068389 -14 28.4375 C-17.86285386 23.72964686 -19.5540904 19.01785428 -19.28515625 12.984375 C-18.6317055 8.43707392 -16.88305207 5.07621971 -14 1.5625 C-9.4038533 -0.8313264 -5.06836332 -0.87385575 0 0 Z " fill="#0F0F0F" transform="translate(281,234)"/>
<path d="M0 0 C3.96 0 7.92 0 12 0 C12 0.66 12 1.32 12 2 C10.35 2 8.7 2 7 2 C7 14.54 7 27.08 7 40 C8.65 40 10.3 40 12 40 C12 40.66 12 41.32 12 42 C7.05 42 2.1 42 -3 42 C-3 41.34 -3 40.68 -3 40 C-1.35 40 0.3 40 2 40 C1.505 22.675 1.505 22.675 1 5 C0.67 5 0.34 5 0 5 C0 3.35 0 1.7 0 0 Z " fill="#0C0C0C" transform="translate(102,222)"/>
<path d="M0 0 C2.97 0 5.94 0 9 0 C9 1.32 9 2.64 9 4 C9.66 3.34 10.32 2.68 11 2 C15.1023556 -0.73490373 17.13418066 -0.5493667 22 0 C24 1.375 24 1.375 25 3 C25 3.66 25 4.32 25 5 C23.125 5.625 23.125 5.625 21 6 C20.34 5.34 19.68 4.68 19 4 C16 3.66666667 16 3.66666667 13 4 C10.47871644 6.52128356 10.70646931 7.51239013 10.5859375 11.0078125 C10.52792969 12.48701172 10.52792969 12.48701172 10.46875 13.99609375 C10.42234375 15.54490234 10.42234375 15.54490234 10.375 17.125 C10.31699219 18.68541016 10.31699219 18.68541016 10.2578125 20.27734375 C10.16335234 22.85138311 10.07778786 25.42541155 10 28 C11.98 28 13.96 28 16 28 C16 28.66 16 29.32 16 30 C10.72 30 5.44 30 0 30 C0 29.34 0 28.68 0 28 C1.65 28 3.3 28 5 28 C5 19.42 5 10.84 5 2 C3.35 2 1.7 2 0 2 C0 1.34 0 0.68 0 0 Z " fill="#0D0D0D" transform="translate(215,234)"/>
<path d="M0 0 C3.3 0 6.6 0 10 0 C10 9.24 10 18.48 10 28 C11.65 28 13.3 28 15 28 C15 28.66 15 29.32 15 30 C10.05 30 5.1 30 0 30 C0 29.34 0 28.68 0 28 C1.65 28 3.3 28 5 28 C5 19.42 5 10.84 5 2 C3.35 2 1.7 2 0 2 C0 1.34 0 0.68 0 0 Z " fill="#0C0C0C" transform="translate(242,234)"/>
<path d="M0 0 C1.875 0.30859375 1.875 0.30859375 3.875 1.30859375 C5.51483879 4.58827133 5.05345638 7.67998064 4.875 11.30859375 C0.255 11.30859375 -4.365 11.30859375 -9.125 11.30859375 C-9.125 4.30859375 -9.125 4.30859375 -8.125 1.87109375 C-5.40986205 -0.25010777 -3.37583707 -0.20478423 0 0 Z " fill="#F6F6F6" transform="translate(199.125,235.69140625)"/>
<path d="M0 0 C0.90105469 0.01804688 1.80210937 0.03609375 2.73046875 0.0546875 C3.41753906 0.07789063 4.10460937 0.10109375 4.8125 0.125 C5.29113248 6.34722222 5.29113248 6.34722222 3.3125 9.5625 C-0.32396461 11.83529038 -2.94532535 11.40781164 -7.1875 11.125 C-8.70900158 8.08199684 -8.42649393 5.470915 -8.1875 2.125 C-4.87379 -0.08414 -3.8428979 -0.09981553 0 0 Z " fill="#F5F5F5" transform="translate(134.1875,250.875)"/>
<path d="M0 0 C4.50648647 3.96024569 7.25574202 8.49259823 10.25390625 13.671875 C11.78215134 16.14541484 11.78215134 16.14541484 14.21484375 16.828125 C14.80394531 16.88484375 15.39304687 16.9415625 16 17 C16 17.66 16 18.32 16 19 C12.68588886 19.98718204 10.28606023 20.15949573 7 19 C3.0441479 14.42047752 -2 8.21930555 -2 2 C-1.34 1.34 -0.68 0.68 0 0 Z " fill="#0C0C0C" transform="translate(308,245)"/>
<path d="M0 0 C3.63 0 7.26 0 11 0 C11.33 9.9 11.66 19.8 12 30 C15.63 26.37 19.26 22.74 23 19 C22.01 18.67 21.02 18.34 20 18 C20 17.34 20 16.68 20 16 C23.96 16 27.92 16 32 16 C32 16.66 32 17.32 32 18 C31.154375 18.185625 30.30875 18.37125 29.4375 18.5625 C24.86932109 20.47282936 22.30866419 23.40530643 19 27 C14.32019704 31.83990148 14.32019704 31.83990148 12 33 C11.34 32.67 10.68 32.34 10 32 C10 21.77 10 11.54 10 1 C6.7 1.33 3.4 1.66 0 2 C0 1.34 0 0.68 0 0 Z " fill="#585858" transform="translate(291,218)"/>
<path d="M0 0 C0.99 0.33 1.98 0.66 3 1 C3 12.88 3 24.76 3 37 C2.67 37 2.34 37 2 37 C1.67 26.44 1.34 15.88 1 5 C-0.32 8.96 -1.64 12.92 -3 17 C-3.88462903 19.26278794 -4.79294813 21.51687898 -5.75 23.75 C-6.39195313 25.25820312 -6.39195313 25.25820312 -7.046875 26.796875 C-7.51867187 27.88742188 -7.51867187 27.88742188 -8 29 C-8.66 28.67 -9.32 28.34 -10 28 C-9.36065929 24.28475286 -8.32252035 20.98212876 -6.93359375 17.48046875 C-6.3293457 15.9480957 -6.3293457 15.9480957 -5.71289062 14.38476562 C-5.29201172 13.32966797 -4.87113281 12.27457031 -4.4375 11.1875 C-4.01275391 10.11306641 -3.58800781 9.03863281 -3.15039062 7.93164062 C-2.10399344 5.28625448 -1.05374756 2.64246489 0 0 Z " fill="#525252" transform="translate(101,225)"/>
<path d="M0 0 C4.3299184 0.06757376 5.79290487 0.16431876 9.4375 2.6875 C11.1875 5.4375 11.1875 5.4375 11.1875 9.4375 C9.5375 9.7675 7.8875 10.0975 6.1875 10.4375 C5.5275 8.1275 4.8675 5.8175 4.1875 3.4375 C1.5475 3.4375 -1.0925 3.4375 -3.8125 3.4375 C-4.4725 5.0875 -5.1325 6.7375 -5.8125 8.4375 C-6.4725 7.4475 -7.1325 6.4575 -7.8125 5.4375 C-8.8025 5.9325 -8.8025 5.9325 -9.8125 6.4375 C-7.37856626 1.2219277 -5.80494712 0.121682 0 0 Z " fill="#191919" transform="translate(338.8125,233.5625)"/>
<path d="M0 0 C3.96 0 7.92 0 12 0 C12 0.66 12 1.32 12 2 C10.35 2 8.7 2 7 2 C6.72414062 2.98097656 6.44828125 3.96195313 6.1640625 4.97265625 C4.97059332 9.14979839 3.67914359 13.2938112 2.375 17.4375 C2.14554688 18.16904297 1.91609375 18.90058594 1.6796875 19.65429688 C1.12058189 21.43644602 0.56040366 23.2182586 0 25 C-2 22 -2 22 -1.64453125 19.6171875 C-1.36996094 18.71226562 -1.09539062 17.80734375 -0.8125 16.875 C-0.52375 15.90691406 -0.235 14.93882812 0.0625 13.94140625 C1.33569716 9.94675015 2.62143849 5.95969795 4 2 C2.68 2 1.36 2 0 2 C0 1.34 0 0.68 0 0 Z " fill="#3B3B3B" transform="translate(170,234)"/>
<path d="M0 0 C3.3 0 6.6 0 10 0 C10 2.31 10 4.62 10 7 C6.7 7 3.4 7 0 7 C-1.125 2.25 -1.125 2.25 0 0 Z " fill="#A8A8A8" transform="translate(204,182)"/>
<path d="M0 0 C0.33 0 0.66 0 1 0 C1.33 11.88 1.66 23.76 2 36 C3.65 36.33 5.3 36.66 7 37 C7 37.66 7 38.32 7 39 C3.04 39 -0.92 39 -5 39 C-5 38.34 -5 37.68 -5 37 C-3.35 37 -1.7 37 0 37 C0 24.79 0 12.58 0 0 Z " fill="#1D1D1D" transform="translate(71,225)"/>
<path d="M0 0 C2.25 1.6875 2.25 1.6875 4 4 C4.25 7.25 4.25 7.25 4 10 C2.35 10.33 0.7 10.66 -1 11 C-1.33 8.36 -1.66 5.72 -2 3 C-4.31 2.34 -6.62 1.68 -9 1 C-9 0.67 -9 0.34 -9 0 C-5.65398876 -0.83650281 -3.23093432 -1.35490794 0 0 Z " fill="#222222" transform="translate(282,235)"/>
<path d="M0 0 C0 0.66 0 1.32 0 2 C-2.31 2.33 -4.62 2.66 -7 3 C-7.33 5.31 -7.66 7.62 -8 10 C-9.65 10 -11.3 10 -13 10 C-12.52039967 3.64529559 -12.52039967 3.64529559 -10.4375 1.0625 C-6.8556202 -0.49883222 -3.89006898 -0.19450345 0 0 Z " fill="#1C1C1C" transform="translate(135,234)"/>
<path d="M0 0 C0.99 0 1.98 0 3 0 C3.556875 1.2065625 3.556875 1.2065625 4.125 2.4375 C5.70945225 5.17419466 5.70945225 5.17419466 8.19140625 5.5546875 C10.46649795 5.7896735 12.71377466 5.94727782 15 6 C15 6.66 15 7.32 15 8 C6.37757848 8.76681614 6.37757848 8.76681614 3 6.88671875 C1.375 5.5 1.375 5.5 -1 3 C-0.67 2.01 -0.34 1.02 0 0 Z " fill="#212121" transform="translate(329,256)"/>
<path d="M0 0 C7.4659249 -0.36717663 7.4659249 -0.36717663 10 1.375 C11 3 11 3 11 5 C9.125 5.625 9.125 5.625 7 6 C6.34 5.34 5.68 4.68 5 4 C3.01643517 3.28591666 1.01684563 2.61382258 -1 2 C-0.67 1.34 -0.34 0.68 0 0 Z " fill="#171717" transform="translate(229,234)"/>
<path d="M0 0 C0.625 1.875 0.625 1.875 1 4 C0.34 4.66 -0.32 5.32 -1 6 C-3.125 5.625 -3.125 5.625 -5 5 C-5.33 3.35 -5.66 1.7 -6 0 C-3.50907189 -1.24546405 -2.58919267 -0.7767578 0 0 Z " fill="#101010" transform="translate(252,221)"/>
<path d="M0 0 C1.21816406 0.03480469 1.21816406 0.03480469 2.4609375 0.0703125 C3.68683594 0.09738281 3.68683594 0.09738281 4.9375 0.125 C5.87722656 0.15980469 5.87722656 0.15980469 6.8359375 0.1953125 C6.8359375 0.8553125 6.8359375 1.5153125 6.8359375 2.1953125 C4.5259375 2.5253125 2.2159375 2.8553125 -0.1640625 3.1953125 C-0.8240625 4.8453125 -1.4840625 6.4953125 -2.1640625 8.1953125 C-2.8240625 7.2053125 -3.4840625 6.2153125 -4.1640625 5.1953125 C-5.1540625 5.6903125 -5.1540625 5.6903125 -6.1640625 6.1953125 C-3.41682632 0.30837783 -3.41682632 0.30837783 0 0 Z " fill="#272727" transform="translate(335.1640625,233.8046875)"/>
<path d="M0 0 C0.99 0.33 1.98 0.66 3 1 C1.75023244 4.65316671 1.32901247 5.78065836 -2 8 C-5.6875 7.625 -5.6875 7.625 -9 7 C-9 6.67 -9 6.34 -9 6 C-7.88625 5.7525 -6.7725 5.505 -5.625 5.25 C-1.95384802 4.38994661 -1.95384802 4.38994661 -0.5625 1.875 C-0.376875 1.25625 -0.19125 0.6375 0 0 Z " fill="#2D2D2D" transform="translate(283,256)"/>
<path d="M0 0 C1.32 0.33 2.64 0.66 4 1 C2.6104538 4.35806998 1.27054981 6.32052848 -2 8 C-5.75 7.6875 -5.75 7.6875 -9 7 C-9 6.67 -9 6.34 -9 6 C-5.535 5.505 -5.535 5.505 -2 5 C-1.34 3.35 -0.68 1.7 0 0 Z " fill="#2D2D2D" transform="translate(205,256)"/>
<path d="M0 0 C3.3 0 6.6 0 10 0 C10 0.99 10 1.98 10 3 C6.7 3 3.4 3 0 3 C0 2.01 0 1.02 0 0 Z " fill="#BDBDBD" transform="translate(204,182)"/>
<path d="M0 0 C3.96 0 7.92 0 12 0 C12 0.66 12 1.32 12 2 C10.35 2 8.7 2 7 2 C6.67 2.99 6.34 3.98 6 5 C5.67 4.01 5.34 3.02 5 2 C3.35 2 1.7 2 0 2 C0 1.34 0 0.68 0 0 Z " fill="#141414" transform="translate(170,234)"/>
<path d="M0 0 C3.96 0 7.92 0 12 0 C12 0.66 12 1.32 12 2 C5.72307692 4.21538462 5.72307692 4.21538462 2.0625 3.125 C1.381875 2.75375 0.70125 2.3825 0 2 C0 1.34 0 0.68 0 0 Z " fill="#090909" transform="translate(311,234)"/>
<path d="M0 0 C0 0.66 0 1.32 0 2 C-3.96 2 -7.92 2 -12 2 C-12 1.34 -12 0.68 -12 0 C-7.66726186 -0.92844389 -4.33273814 -0.92844389 0 0 Z " fill="#131313" transform="translate(78,262)"/>
<path d="M0 0 C0.66 0.66 1.32 1.32 2 2 C1.61121812 5.01305957 0.73543126 6.39685311 -1 9 C-2.0326802 6.21176345 -2.04509293 5.1322726 -1.0625 2.25 C-0.711875 1.5075 -0.36125 0.765 0 0 Z " fill="#3E3E3E" transform="translate(93,245)"/>
</svg>
